<svg id="Layer_1" data-name="Layer 1" xmlns="http://www.w3.org/2000/svg" viewBox="0 0 1991.27 1921.33"><defs><style>.cls-1{fill:#fff}.cls-2{fill:silver}</style></defs><title>placeholder icon</title><path class="cls-1" d="M0 0h1991.27v1921.33H0z"/><path class="cls-2" d="M1288.52 787.51l-34.2-199.9-700.15 122.93 102.61 584.71 69.49-11.76v50.24h710.83V787.51zm-562.25 437.18l-22.45 4.31-83.38-471.4 586.84-103.69 23.52 133.62H726.27zm653.11 51.31H784V845.22h595.4z"/><path class="cls-2" d="M822.46 1230.08h518.44v-170.22l-109-123.6a28 28 0 0 0-44.74 3.58l-93.9 148.82a18.27 18.27 0 0 1-27.73 3.78l-61.02-55.44a25.28 25.28 0 0 0-37.07 3.37z"/><circle class="cls-2" cx="892.16" cy="948.2" r="40.81"/></svg>